<svg width="100" height="60" viewBox="0 0 100 60" fill="none" xmlns="http://www.w3.org/2000/svg">
<path d="M97.5231 15.6597L99.9699 2.09369C100.174 1.00382 99.3 0 98.1931 0H52.4605H18.3503C17.7095 0 17.0978 0.344168 16.7774 0.889101L0.232075 29.1109C-0.0883446 29.6558 -0.0883446 30.3442 0.232075 30.8891L16.7774 59.0822C17.0978 59.6271 17.7095 59.9713 18.3503 59.9713H41.741H52.4605H88.5805C89.4543 59.9713 90.2117 59.3403 90.3573 58.4799L92.8042 44.7419C93.0081 43.652 92.1342 42.6482 91.0273 42.6482H70.1418C69.0058 42.6482 68.161 41.6444 68.3649 40.5258L68.6562 38.9771C68.8018 38.1166 69.5592 37.5143 70.4331 37.5143H88.6387C89.5126 37.5143 90.27 36.8834 90.4447 36.0229L92.5129 24.3499C92.7168 23.26 91.8429 22.2562 90.7069 22.2562H73.7829C72.6469 22.2562 71.8021 21.2524 71.9769 20.1625L72.2391 18.6138C72.3847 17.7533 73.1421 17.1224 74.0451 17.1224H95.688C96.6201 17.1511 97.3774 16.5201 97.5231 15.6597ZM22.341 49.6463L11.3594 30.8891C11.039 30.3442 11.039 29.6558 11.3594 29.1109L22.341 10.3537C22.6614 9.80879 23.2731 9.46463 23.914 9.46463H45.9064C46.5473 9.46463 47.159 9.80879 47.4794 10.3537L58.461 29.1109C58.7815 29.6558 58.7815 30.3442 58.461 30.8891L47.4794 49.6463C47.159 50.1912 46.5473 50.5354 45.9064 50.5354H23.914C23.244 50.5354 22.6614 50.1912 22.341 49.6463Z" fill="url(#paint0_linear_1_13)"/>
<defs>
<linearGradient id="paint0_linear_1_13" x1="9.23476" y1="29.9946" x2="210.408" y2="29.9946" gradientUnits="userSpaceOnUse">
<stop stop-color="#B8005F"/>
<stop offset="1" stop-color="#00FFFF"/>
</linearGradient>
</defs>
</svg>
